# xmcd
#
# Track frame offsets: 
#        150
#        15280
#        26830
#        38057
#        47995
#        60247
#        74325
#        83567
#        97042
#        109025
#        120985
#        132975
#        147640
#        159470
#        171460
#        182807
#        193765
#        205172
#
# Disc length: 2892 seconds
#
# Revision: 2
# Processed by: cddbd v1.5.2PL0 Copyright (c) Steve Scherf et al.
# Submitted via: ExactAudioCopy v0.99pb5
#
DISCID=fa0b4a12
DTITLE=Various Artist - Country Romance
DYEAR=2000
DGENRE=Country
TTITLE0=Bobby Bare - Lay your head upon my pillow (for the good times)
TTITLE1=Dave Dudley - Sentimental journey
TTITLE2=David Price - The lonesome truck drivers waltz
TTITLE3=Ronnie Rogers - The fool on the stool
TTITLE4=Bobby Bare - Roses are red (my love)
TTITLE5=Ferlin Husky - Little Tom
TTITLE6=Buddy Meredith - I'm coming back in style
TTITLE7=Freddy Quinn - Home on the range
TTITLE8=George Kent - Hittin' the bottle, missing you
TTITLE9=Bobby Bare - Even the bad times are good
TTITLE10=Dave Dudley - Eagles fly alone
TTITLE11=Ferlin Husky - There goes my everything
TTITLE12=Bobby Lord - Good old song
TTITLE13=Buddy Meredith - I pledge allegiance
TTITLE14=Ferlin Husky - My home town
TTITLE15=Bobby Bare - Hello darlin'
TTITLE16=Billy Grammer - Mabel, you have been a friend to me
TTITLE17=Dave Dudley - The most beautiful girl
EXTD=
EXTT0=
EXTT1=
EXTT2=
EXTT3=
EXTT4=
EXTT5=
EXTT6=
EXTT7=
EXTT8=
EXTT9=
EXTT10=
EXTT11=
EXTT12=
EXTT13=
EXTT14=
EXTT15=
EXTT16=
EXTT17=
PLAYORDER=
